<?xml version="1.0" encoding="UTF-8" standalone="no"?><svg xmlns="http://www.w3.org/2000/svg" xmlns:xlink="http://www.w3.org/1999/xlink" contentStyleType="text/css" height="289px" preserveAspectRatio="none" style="width:453px;height:289px;background:#FFFFFF;" version="1.1" viewBox="0 0 453 289" width="453px" zoomAndPan="magnify"><defs/><g><rect fill="#F1F1F1" height="36.2969" rx="12.5" ry="12.5" style="stroke:#181818;stroke-width:1.5;" width="39" x="10" y="69.2598"/><text fill="#000000" font-family="sans-serif" font-size="14" lengthAdjust="spacing" textLength="19" x="20" y="92.2549">AT</text><rect fill="#F1F1F1" height="36.2969" rx="12.5" ry="12.5" style="stroke:#181818;stroke-width:1.5;" width="62" x="99" y="62.2227"/><text fill="#000000" font-family="sans-serif" font-size="14" lengthAdjust="spacing" textLength="42" x="109" y="85.2178">新版本</text><rect fill="#F1F1F1" height="36.2969" rx="12.5" ry="12.5" style="stroke:#181818;stroke-width:1.5;" width="118" x="211" y="48.1484"/><text fill="#000000" font-family="sans-serif" font-size="14" lengthAdjust="spacing" textLength="98" x="221" y="71.1436">开启主持人模式</text><rect fill="#FF6666" height="36.2969" rx="12.5" ry="12.5" style="stroke:#181818;stroke-width:1.5;" width="62" x="379" y="20"/><text fill="#000000" font-family="sans-serif" font-size="14" lengthAdjust="spacing" textLength="42" x="389" y="42.9951">主持人</text><path d="M329,66.2969 L339,66.2969 C354,66.2969 354,38.1484 369,38.1484 L379,38.1484 " fill="none" style="stroke:#181818;stroke-width:1.0;"/><rect fill="#FFA500" height="36.2969" rx="12.5" ry="12.5" style="stroke:#181818;stroke-width:1.5;" width="62" x="379" y="76.2969"/><text fill="#000000" font-family="sans-serif" font-size="14" lengthAdjust="spacing" textLength="42" x="389" y="99.292">听课端</text><path d="M329,66.2969 L339,66.2969 C354,66.2969 354,94.4453 369,94.4453 L379,94.4453 " fill="none" style="stroke:#181818;stroke-width:1.0;"/><path d="M161,80.3711 L171,80.3711 C186,80.3711 186,66.2969 201,66.2969 L211,66.2969 " fill="none" style="stroke:#181818;stroke-width:1.0;"/><rect fill="#FFA500" height="36.2969" rx="12.5" ry="12.5" style="stroke:#181818;stroke-width:1.5;" width="118" x="211" y="104.4453"/><text fill="#000000" font-family="sans-serif" font-size="14" lengthAdjust="spacing" textLength="98" x="221" y="127.4404">关闭主持人模式</text><path d="M161,80.3711 L171,80.3711 C186,80.3711 186,122.5938 201,122.5938 L211,122.5938 " fill="none" style="stroke:#181818;stroke-width:1.0;"/><path d="M49,87.4082 L59,87.4082 C74,87.4082 74,80.3711 89,80.3711 L99,80.3711 " fill="none" style="stroke:#181818;stroke-width:1.0;"/><rect fill="#008000" height="36.2969" rx="12.5" ry="12.5" style="stroke:#181818;stroke-width:1.5;" width="62" x="99" y="118.5195"/><text fill="#000000" font-family="sans-serif" font-size="14" lengthAdjust="spacing" textLength="42" x="109" y="141.5146">旧版本</text><path d="M49,87.4082 L59,87.4082 C74,87.4082 74,136.668 89,136.668 L99,136.668 " fill="none" style="stroke:#181818;stroke-width:1.0;"/><rect fill="#F1F1F1" height="36.2969" rx="12.5" ry="12.5" style="stroke:#181818;stroke-width:1.5;" width="62" x="10" y="202.9648"/><text fill="#000000" font-family="sans-serif" font-size="14" lengthAdjust="spacing" textLength="42" x="20" y="225.96">录播机</text><rect fill="#FFA500" height="36.2969" rx="12.5" ry="12.5" style="stroke:#181818;stroke-width:1.5;" width="62" x="122" y="174.8164"/><text fill="#000000" font-family="sans-serif" font-size="14" lengthAdjust="spacing" textLength="42" x="132" y="197.8115">新版本</text><path d="M72,221.1133 L82,221.1133 C97,221.1133 97,192.9648 112,192.9648 L122,192.9648 " fill="none" style="stroke:#181818;stroke-width:1.0;"/><rect fill="#008000" height="36.2969" rx="12.5" ry="12.5" style="stroke:#181818;stroke-width:1.5;" width="62" x="122" y="231.1133"/><text fill="#000000" font-family="sans-serif" font-size="14" lengthAdjust="spacing" textLength="42" x="132" y="254.1084">旧版本</text><path d="M72,221.1133 L82,221.1133 C97,221.1133 97,249.2617 112,249.2617 L122,249.2617 " fill="none" style="stroke:#181818;stroke-width:1.0;"/><!--MD5=[902083a002236a5d088a8c3565d79fe7]
@startmindmap
* AT
** 新版本
*** 开启主持人模式
****[#FF6666] 主持人
****[#Orange] 听课端
***[#Orange] 关闭主持人模式
**[#Green] 旧版本

* 录播机
**[#Orange] 新版本
**[#Green] 旧版本
@endmindmap

PlantUML version 1.2022.7beta11(Unknown compile time)
(GPL source distribution)
Java Runtime: Java(TM) SE Runtime Environment
JVM: Java HotSpot(TM) 64-Bit Server VM
Default Encoding: UTF-8
Language: en
Country: US
--></g></svg>